Coordinates
version=1
nRows=19
nColumns=36
inDegrees=yes

Units are S.I. units (second, meters, Newtons, ...)
If the header above contains a line with 'inDegrees', this indicates whether rotational values are in degrees (yes) or radians (no).

endheader
time	pelvis_tilt	pelvis_list	pelvis_rotation	pelvis_tx	pelvis_ty	pelvis_tz	hip_flexion_r	hip_adduction_r	hip_rotation_r	knee_angle_r	knee_angle_r_beta	ankle_angle_r	subtalar_angle_r	mtp_angle_r	hip_flexion_l	hip_adduction_l	hip_rotation_l	knee_angle_l	knee_angle_l_beta	ankle_angle_l	subtalar_angle_l	mtp_angle_l	lumbar_extension	lumbar_bending	lumbar_rotation	arm_flex_r	arm_add_r	arm_rot_r	elbow_flex_r	pro_sup_r	arm_flex_l	arm_add_l	arm_rot_l	elbow_flex_l	pro_sup_l
      0.00000000	     -0.37780458	      0.25273862	     -7.23717706	      0.61399812	      0.94321127	      0.04085533	     -5.23027181	     -3.12735202	     -2.46665089	      0.57619062	      0.01005642	      4.25777937	     -1.75417378	     -6.38463832	     -3.10322248	     -1.81219582	      0.71465260	      3.04180117	      0.05308945	      5.23804675	     -4.53137998	     -6.38463832	     -0.23213941	     -0.25381851	      1.33773199	     -2.38914759	    -11.52387685	     -0.00422866	     19.10144887	     89.00651186	      3.28180784	    -11.92251204	     14.29494591	     18.64511854	     84.29344506
      0.01666670	     -0.47406540	      0.30452625	     -8.07193222	      0.61201432	      0.94296941	      0.04112669	     -4.97778989	     -3.29075522	     -1.92154620	      0.40422527	      0.00705506	      5.70512497	     -0.94410305	     -6.92365104	     -3.27017390	     -1.68972071	     -0.10449688	      1.99210360	      0.03476877	      5.83655515	     -4.56992660	     -6.92365104	     -0.33083691	     -0.48920696	      1.74862876	     -1.62044970	    -11.73657494	      1.78915581	     18.61387070	     80.53200597	      3.25340368	    -11.83709251	     14.39468873	     18.67774171	     75.85400404
      0.03333330	     -0.99456179	      0.07350768	     -8.08285947	      0.61912819	      0.94353809	      0.04534198	     -4.67124394	     -2.79301301	     -1.56295610	      0.38384740	      0.00669940	      6.44956088	     -1.26462092	     -7.18418827	     -3.19668100	     -1.97506181	      0.03590674	      1.52017303	      0.02653202	      6.67454231	     -4.48556118	     -7.18418827	      0.91549167	     -0.11844393	      0.79888203	     -0.90679149	    -12.01663913	      2.82081186	     16.87794290	     92.62590563	      2.60449920	    -11.88453627	     12.32660459	     17.49730861	     85.56542634
      0.05000000	     -1.17269179	      0.06817576	     -8.09096775	      0.61190019	      0.93944120	      0.04083879	     -4.41322626	     -2.78209719	     -1.74395995	      0.37949623	      0.00662346	      6.61865258	     -1.40937458	     -7.32059139	     -3.03792296	     -1.92985656	     -0.46821125	      1.23254842	      0.02151203	      7.03758611	     -3.89211953	     -7.32059139	      1.06846424	      0.00761989	      0.69464869	     -0.57919684	    -12.25933002	      3.26789069	     16.47593718	     93.89148405	      2.77596466	    -11.99478356	     12.55113500	     17.28572093	     87.80901409
      0.06666670	     -1.13962593	      0.11792531	     -8.01891600	      0.61316166	      0.93932436	      0.04090366	     -4.46066846	     -2.81347704	     -1.63191564	      0.38822224	      0.00677576	      7.07669122	     -1.81040350	     -7.41802939	     -3.05062610	     -1.86414908	     -0.78834151	      1.15021564	      0.02007505	      7.23951120	     -3.30731519	     -7.41802939	      1.11442260	     -0.04047810	      0.47419201	     -0.35328387	    -12.37917021	      4.02736413	     16.12163498	     94.92022019	      2.80772385	    -12.06938329	     12.23954552	     17.11179574	     89.83130229
      0.08333330	     -1.21378481	      0.20753694	     -8.02965753	      0.61249896	      0.93910975	      0.04106851	     -4.33492985	     -2.88256865	     -1.44999875	      0.41694947	      0.00727714	      7.27511513	     -2.46141271	     -7.43738983	     -2.95525789	     -1.80893637	     -1.08624386	      1.10397649	      0.01926802	      7.40391079	     -2.60960303	     -7.43738983	      1.26455406	     -0.10591533	      0.33525526	     -0.18804755	    -12.45886315	      5.74228268	     15.91595100	     93.81993010	      2.88369516	    -12.28143256	     13.57450381	     16.86394239	     89.25515224
      0.10000000	     -1.20913030	      0.31391263	     -8.11879560	      0.61344637	      0.93664829	      0.04122287	     -4.28285631	     -3.01003599	     -1.43892061	      0.43951940	      0.00767106	      7.40091448	     -2.78889977	     -7.45073446	     -2.95811114	     -1.71000873	     -1.24989891	      1.09499877	      0.01911133	      7.36433321	     -2.25759600	     -7.45073446	      1.26626211	     -0.17268980	      0.25122515	     -0.09028515	    -12.61833409	      7.02688545	     15.98831862	     94.52003729	      2.81046833	    -12.50580750	     14.37893720	     16.89992269	     90.43495863
      0.11666670	     -1.20797750	      0.29559395	     -8.20614730	      0.61880103	      0.93965900	      0.04564281	     -4.34709893	     -2.97428766	     -1.45891398	      0.44367535	      0.00774360	      7.54264824	     -2.86061905	     -7.45091389	     -3.05875235	     -1.79034571	     -1.40816814	      1.07477908	      0.01875843	      7.24173993	     -2.18337089	     -7.45091389	      1.38007758	     -0.19317995	      0.28579217	     -0.18140310	    -12.51415852	      7.04583067	     15.97405781	     94.57001128	      2.65757514	    -12.62421602	     14.37145812	     16.81711736	     90.49583770
      0.13333330	     -1.22168811	      0.32574246	     -8.28026124	      0.61338830	      0.93913109	      0.04172607	     -4.28753597	     -3.00924098	     -1.45275610	      0.47434303	      0.00827885	      7.59536763	     -2.88394246	     -7.45097170	     -3.07196336	     -1.78126910	     -1.45159107	      1.07569717	      0.01877446	      7.18883180	     -2.13581302	     -7.45097170	      1.39983299	     -0.16260544	      0.28037442	     -0.14859929	    -12.50025879	      7.05670212	     15.98514462	     94.59267302	      2.66944939	    -12.66223701	     14.38031258	     16.80402045	     90.52601975
      0.15000000	     -1.19454016	      0.29355240	     -8.37207516	      0.61849395	      0.93716622	      0.04576958	     -4.36332328	     -2.94632132	     -1.43194219	      0.48914880	      0.00853726	      7.69677290	     -2.94015287	     -7.45108687	     -3.17114866	     -1.84462998	     -1.62164281	      1.08314015	      0.01890436	      7.07973300	     -2.07262892	     -7.45108687	      1.52372916	     -0.16342631	      0.30443536	     -0.20378529	    -12.41292792	      7.10382402	     15.98398250	     94.65506207	      2.49312526	    -12.77503957	     14.41761287	     16.69643296	     90.60554674
      0.16666670	     -1.19148289	      0.29913938	     -8.38583405	      0.61333345	      0.93680262	      0.04155463	     -4.31951442	     -2.95981071	     -1.43009720	      0.55596616	      0.00970344	      7.70134749	     -2.94175995	     -7.45108987	     -3.18892437	     -1.84733392	     -1.62611582	      1.08183699	      0.01888162	      7.07717467	     -2.07023880	     -7.45108987	      1.52953152	     -0.16621340	      0.30142733	     -0.20895596	    -12.40747044	      7.10568496	     15.98391552	     94.65683063	      2.49120954	    -12.78100772	     14.41882415	     16.69526704	     90.60783769
      0.18333330	     -1.06083908	      0.30218219	     -8.57074885	      0.61231281	      0.93692890	      0.04178548	     -4.42654488	     -2.98450438	     -1.01368193	      0.54203052	      0.00946022	      7.80638435	     -3.29853078	     -7.46241674	     -3.31973040	     -1.83594701	     -2.46431150	      1.11114766	      0.01939319	      7.23364428	     -1.00713279	     -7.46241674	      1.36606233	     -0.12519462	      0.13303908	      0.21799156	    -12.42874623	      8.33529739	     15.68230768	     92.56192291	      2.66313496	    -12.88375212	     15.70757908	     16.16146603	     89.33064742
      0.20000000	     -1.27011698	      0.37292580	     -8.41072676	      0.61359415	      0.93963074	      0.04194043	     -4.19846689	     -3.01775515	     -1.08928107	      0.57523056	      0.01003967	      7.83777257	     -3.46675973	     -7.48034686	     -3.03500262	     -1.80142074	     -2.26310849	      1.15888705	      0.02022639	      7.07565302	     -1.18467817	     -7.48034686	      1.65820479	     -0.19658389	      0.08648640	      0.14749342	    -12.47842802	      7.14664462	     15.91031828	    101.67255489	      2.78301667	    -12.98681732	     14.60710465	     16.06378379	    100.84496322
      0.21666670	     -1.30051146	      0.37834095	     -8.31438181	      0.61254681	      0.93947339	      0.04184140	     -4.15064235	     -3.00526849	     -1.09781046	      0.59826101	      0.01044162	      7.94095448	     -3.47464473	     -7.49504397	     -2.95694796	     -1.80836358	     -2.26532621	      1.19145557	      0.02079482	      7.04157453	     -1.11050391	     -7.49504397	      1.63991928	     -0.20342831	      0.01472880	      0.29942792	    -12.51117213	      7.39531456	     15.80081621	    102.10748440	      2.87400490	    -13.03752196	     14.80431250	     15.99835980	    101.50853702
      0.23333330	     -1.30446656	      0.37757459	     -8.29909601	      0.61973329	      0.93759111	      0.04579225	     -4.17917935	     -2.98786296	     -1.09792727	      0.61177902	      0.01067756	      7.93998172	     -3.47473821	     -7.49504429	     -2.97076685	     -1.80262421	     -2.26619638	      1.20176941	      0.02097483	      7.03895157	     -1.11076395	     -7.49504429	      1.63330533	     -0.20086294	      0.01675404	      0.30689759	    -12.51505637	      7.39504946	     15.80186447	    102.10764932	      2.87527979	    -13.03382978	     14.80495531	     15.99744059	    101.50890251
      0.25000000	     -1.31093547	      0.33754299	     -8.31446193	      0.61867416	      0.93791229	      0.04537992	     -4.23215273	     -2.91635075	     -0.99612758	      0.60053437	      0.01048130	      8.06435536	     -3.53318855	     -7.49887992	     -3.08790883	     -1.87783335	     -2.26250523	      1.13968752	      0.01989130	      6.92726707	     -1.12886036	     -7.49887992	      1.77742599	     -0.23644551	     -0.02048487	      0.24049965	    -12.50455087	      7.57989068	     15.82930824	    103.31513884	      2.81381118	    -13.09093038	     15.35540717	     15.50905673	    102.99439367
      0.26666670	     -1.33571851	      0.40093033	     -8.34087775	      0.61323009	      0.93444978	      0.04147625	     -4.16030375	     -2.98239673	     -0.85724449	      0.60281764	      0.01052115	      8.00413966	     -3.76807889	     -7.49911442	     -3.01573581	     -1.79473886	     -2.23462016	      1.13157735	      0.01974975	      6.99750687	     -1.08564556	     -7.49911442	      1.79483116	     -0.30249785	     -0.00214251	      0.45374785	    -12.59749323	      8.80646605	     15.58780920	    102.01874896	      2.90833546	    -13.15365433	     16.57036107	     15.33282866	    101.65637207
      0.28333330	     -1.40028675	      0.42963931	     -8.20842700	      0.61214380	      0.93447239	      0.04119915	     -4.08090956	     -3.00716430	     -1.19052484	      0.61879858	      0.01080007	      8.31621459	     -3.29558426	     -7.49972737	     -2.90077350	     -1.77426946	     -2.11374245	      1.14758200	      0.02002908	      7.01976810	     -1.00300002	     -7.49972737	      1.80049236	     -0.35476294	     -0.04294650	      0.37970403	    -12.66573139	      8.56211441	     15.93533612	    103.29563040	      2.98947054	    -13.25716825	     16.95877741	     15.46972823	    103.12549503
      0.30000000	     -1.41554375	      0.42935911	     -8.21907994	      0.61331619	      0.93722446	      0.04168502	     -4.03456951	     -2.99915916	     -0.80127026	      0.65161622	      0.01137285	      8.21660184	     -3.82354673	     -7.49992859	     -2.85865355	     -1.78847548	     -2.20233192	      1.17880816	      0.02057408	      7.14642592	     -0.66085842	     -7.49992859	      1.81428651	     -0.35880033	     -0.12010991	      0.68493787	    -12.88896016	     11.92201553	     15.58447514	     99.18172719	      3.15333346	    -13.42560219	     20.03347040	     15.06000424	     98.79087816
